<?xml version="1.0" encoding="UTF-8" standalone="no"?>
<!-- Created with Inkscape (http://www.inkscape.org/) -->

<svg
   width="118.44991mm"
   height="299.09229mm"
   viewBox="0 0 118.44991 299.09229"
   version="1.1"
   id="svg1"
   xml:space="preserve"
   inkscape:version="1.3.2 (1:1.3.2+202311252150+091e20ef0f)"
   sodipodi:docname="Transmigrator-mini-transparent.svg"
   xmlns:inkscape="http://www.inkscape.org/namespaces/inkscape"
   xmlns:sodipodi="http://sodipodi.sourceforge.net/DTD/sodipodi-0.dtd"
   xmlns="http://www.w3.org/2000/svg"
   xmlns:svg="http://www.w3.org/2000/svg"><sodipodi:namedview
     id="namedview1"
     pagecolor="#ffffff"
     bordercolor="#000000"
     borderopacity="0.25"
     inkscape:showpageshadow="2"
     inkscape:pageopacity="0.0"
     inkscape:pagecheckerboard="0"
     inkscape:deskcolor="#d1d1d1"
     inkscape:document-units="mm"
     inkscape:zoom="0.74297138"
     inkscape:cx="223.42718"
     inkscape:cy="349.94618"
     inkscape:window-width="1850"
     inkscape:window-height="1016"
     inkscape:window-x="0"
     inkscape:window-y="0"
     inkscape:window-maximized="1"
     inkscape:current-layer="layer1" /><defs
     id="defs1" /><g
     inkscape:label="Capa 1"
     inkscape:groupmode="layer"
     id="layer1"
     transform="translate(-45.829003,1.0254775)"><g
       id="g1"
       transform="matrix(1.0000368,0,0,1.0000368,-44.951563,-1.50552)"><g
         fill="#c40233"
         class="C D"
         id="g2"><path
           d="m 150,1 v 92 h 34 z m 0,0 v 92 h -34 z"
           class="B"
           id="path2" /></g><path
         d="m 184,93 v 57 H 173 V 115 H 161 V 93 Z"
         class="B C D E"
         id="path3" /><path
         d="m 150,93 h 11 v 22 h 12 v 35 h -23 z"
         class="B C D F"
         id="path4" /><path
         d="m 184,150 h 23 L 184,93 Z"
         class="B C D G"
         id="path5" /><path
         d="m 139,93 h 11 v 57 h -23 v -35 h 12 z"
         class="B C D F"
         id="path6" /><path
         d="M 139,115 V 93 h -23 v 57 h 11 v -35 z"
         class="B C D E"
         id="path7" /><path
         d="M 116,150 H 93 l 23,-57 z"
         class="B C D G"
         id="path8" /><g
         fill="#c40233"
         class="C D"
         id="g9"><path
           d="m 93,150 h 34 v 92 z m 114,0 h -34 v 92 z"
           class="B"
           id="path9" /></g><g
         class="F C D"
         id="g10"><path
           d="m 127,150 h 23 v 57 h -11 v -23 h -12 z m 46,0 h -23 v 57 h 11 v -23 h 12 z"
           class="B"
           id="path10" /></g><g
         class="E C D"
         id="g11"><path
           d="m 139,184 h -12 v 58 h 23 v -23 h -11 z m 34,0 v 58 h -23 v -23 h 11 v -35 z"
           class="B"
           id="path11" /></g><g
         class="G C D"
         id="g12"><path
           d="m 150,242 v 57 l 23,-57 z m -23,0 h 23 v 57 z"
           class="B"
           id="path12" /></g><path
         fill="#ffffff"
         d="m 139,207 v 12 h 22 v -12 z"
         class="B C D"
         id="path13" /></g></g><style
     id="style1">.B{opacity:.98}.C{stroke:#000}.D{stroke-width:3}.E{fill:#ffd300}.F{fill:#009f6b}.G{fill:#0087bd}</style></svg>
